<?xml version="1.0" encoding="UTF-8"?>
<svg version="1.1" xmlns="http://www.w3.org/2000/svg" width="512" height="512">
<path d="M0 0 C10.26210563 10.83222261 6.25 24.04894796 6.25 38.375 C62.35 38.375 118.45 38.375 176.25 38.375 C176.25 29.465 176.25 20.555 176.25 11.375 C180.76134021 1.22448454 180.76134021 1.22448454 184.75 -1.125 C185.5028125 -1.5890625 186.255625 -2.053125 187.03125 -2.53125 C192.4602918 -5.20753821 198.53149271 -5.48207881 204.40234375 -4.12890625 C210.22507976 -2.15074066 214.66167413 0.74181569 217.8996582 6.10986328 C219.4172265 9.77935495 219.59548668 12.34833644 219.54296875 16.3046875 C219.53330078 17.59375 219.52363281 18.8828125 219.51367188 20.2109375 C219.48861188 21.55729786 219.46321712 22.90365203 219.4375 24.25 C219.42243504 25.61977705 219.40874982 26.98957002 219.39648438 28.359375 C219.36121379 31.69832358 219.31191896 35.03645675 219.25 38.375 C220.075 38.35928955 220.9 38.3435791 221.75 38.32739258 C268.41840628 37.55587944 268.41840628 37.55587944 285.25 52.375 C285.84296875 52.88675781 286.4359375 53.39851563 287.046875 53.92578125 C303.02693336 68.73915393 304.47381984 89.70708582 305.37548828 110.23144531 C305.47093146 113.0506162 305.52745303 115.8669696 305.5625 118.6875 C305.58022461 119.54045654 305.59794922 120.39341309 305.61621094 121.2722168 C305.60801912 128.16767924 304.2131241 134.05222068 300 139.6875 C294.70104329 144.86602587 290.54492205 145.57296465 283.3125 145.8125 C276.48036642 145.6456857 271.8471664 144.5837834 266.73046875 140.01953125 C261.61048736 134.51592013 260.97046944 127.70132896 260.65234375 120.5 C260.61315323 119.77184082 260.57396271 119.04368164 260.53358459 118.29345703 C260.41061613 115.98762449 260.29842375 113.68144057 260.1875 111.375 C260.07126648 109.06869505 259.9526621 106.76255235 259.83070374 104.45654297 C259.75572991 103.02867331 259.68423927 101.60061468 259.6169281 100.17236328 C259.51838058 98.23855148 259.38473304 96.30662799 259.25 94.375 C259.1428064 92.49167969 259.1428064 92.49167969 259.03344727 90.5703125 C258.57703044 87.28595002 258.57703044 87.28595002 256.17261791 85.74856281 C252.70089045 84.11693121 249.47670682 83.57072885 245.70466614 83.2026825 C244.92853401 83.12291253 244.15240188 83.04314256 243.3527506 82.96095532 C231.93456686 81.92481713 220.45685204 82.09900833 209.00300539 82.12820971 C205.50814941 82.13488063 202.01330578 82.12981822 198.51844788 82.12632751 C191.69855175 82.12132394 184.87870469 82.12687781 178.05881467 82.13617782 C170.09966212 82.14663579 162.14051977 82.1464897 154.18136165 82.14600524 C139.97400623 82.14550626 125.76667343 82.15462266 111.55932617 82.16918945 C97.80248604 82.18328684 84.04566581 82.1903595 70.28881836 82.18969727 C69.4406429 82.18965731 68.59246743 82.18961735 67.71858969 82.18957619 C66.44842762 82.18951565 66.44842762 82.18951565 65.15260571 82.1894539 C49.44181603 82.18876265 33.73103472 82.19466041 18.02024775 82.20360712 C12.4837455 82.20661204 6.94724479 82.2076853 1.41074181 82.20813942 C-5.34038534 82.20882424 -12.09149836 82.21332639 -18.84261952 82.22247223 C-22.28123748 82.22706213 -25.71983748 82.23014616 -29.15845871 82.22887802 C-32.89706815 82.22838399 -36.63562037 82.23407546 -40.3742218 82.24128723 C-41.44466982 82.23973863 -42.51511783 82.23819003 -43.61800367 82.2365945 C-58.74097885 81.79102337 -58.74097885 81.79102337 -72.75 86.375 C-76.97419968 90.71036283 -77.8724251 94.17486595 -77.88142776 100.07435894 C-77.88718948 101.4939801 -77.88718948 101.4939801 -77.8930676 102.94228047 C-77.89220112 103.97893702 -77.89133463 105.01559356 -77.89044189 106.08366394 C-77.89341302 107.18737424 -77.89638414 108.29108453 -77.8994453 109.4282406 C-77.90814178 113.13991215 -77.90964136 116.85155148 -77.91113281 120.56323242 C-77.91576033 123.21913811 -77.92076427 125.87504086 -77.92617798 128.53094482 C-77.93975646 135.75628675 -77.9457854 142.98162313 -77.95018864 150.2069757 C-77.95295214 154.71978037 -77.95718972 159.2325829 -77.96169281 163.74538612 C-77.97388534 176.2433404 -77.98418436 188.74129295 -77.9875679 201.23925304 C-77.98778747 202.03907115 -77.98800703 202.83888926 -77.98823325 203.66294428 C-77.98845153 204.46466365 -77.98866981 205.26638302 -77.9888947 206.09239691 C-77.98933817 207.71695276 -77.98978473 209.34150861 -77.99023438 210.96606445 C-77.99056652 212.17481516 -77.99056652 212.17481516 -77.99090537 213.40798507 C-77.99485207 226.46082667 -78.01230224 239.51361241 -78.0355939 252.56643244 C-78.05932151 265.97194186 -78.07177041 279.37742327 -78.07293582 292.78295404 C-78.07385184 300.30786546 -78.07958568 307.8327041 -78.09775543 315.35759544 C-78.11317553 321.76627498 -78.11826569 328.17485925 -78.11001733 334.58355381 C-78.1061174 337.85153392 -78.10864873 341.11928268 -78.12107468 344.38724709 C-78.13377416 347.93546868 -78.12792763 351.48319961 -78.11749268 355.03141785 C-78.12554908 356.05692078 -78.13360548 357.08242372 -78.14190602 358.1390025 C-78.1010345 364.08971957 -77.7650903 370.08890605 -74.75 375.375 C-71.3819907 377.02791451 -71.3819907 377.02791451 -67.75 377.375 C-67.16337585 377.54705963 -66.57675171 377.71911926 -65.97235107 377.89639282 C-62.84122688 378.57071405 -59.83181047 378.51648605 -56.62988281 378.53271484 C-55.92038483 378.53779556 -55.21088684 378.54287628 -54.47988892 378.54811096 C-52.94230625 378.55879165 -51.40470826 378.56742081 -49.86710358 378.57423019 C-47.42814639 378.58605864 -44.98936314 378.60552262 -42.55047607 378.62734985 C-35.61704349 378.68882513 -28.68362905 378.74292836 -21.75 378.77636719 C-17.50474376 378.79738885 -13.25980589 378.83275236 -9.01473236 378.87712479 C-7.40255242 378.89122633 -5.79031616 378.89999394 -4.1780777 378.90317917 C6.88310967 378.92734125 15.98535565 379.11035565 24.25 387.375 C28.33261715 394.1113183 27.98127567 400.71714693 27.25 408.375 C25.65012264 414.3406444 22.31294236 417.99970509 17.25 421.375 C12.37825384 423.05110569 8.12973388 423.62717542 2.9921875 423.63378906 C1.95877983 423.63904602 1.95877983 423.63904602 0.90449524 423.64440918 C-1.35544157 423.65315272 -3.61506041 423.64739844 -5.875 423.640625 C-7.46573953 423.641975 -9.05647866 423.64391831 -10.6472168 423.64642334 C-13.97920668 423.64936569 -17.31108907 423.64511022 -20.64306641 423.63574219 C-24.87101958 423.62442264 -29.09871665 423.63086483 -33.32666016 423.64288712 C-36.61450039 423.65019376 -39.90228229 423.64777668 -43.19012451 423.64263153 C-44.74631787 423.64131532 -46.30251686 423.64286987 -47.85870361 423.64759064 C-68.4892581 423.696396 -89.55431046 422.14086252 -105.1484375 407.0546875 C-123.49856598 387.60720915 -123.05232834 365.56580851 -123.0246582 340.27026367 C-123.02901104 337.63571157 -123.03413266 335.00117075 -123.04014587 332.36662292 C-123.05282784 325.98066019 -123.05469474 319.59473963 -123.05234561 313.20876642 C-123.05055495 308.01235009 -123.05232802 302.81594645 -123.05657005 297.61953163 C-123.05716524 296.87698924 -123.05776043 296.13444686 -123.05837366 295.36940319 C-123.05958554 293.86041209 -123.06079967 292.351421 -123.06201603 290.84242991 C-123.07286654 276.72390492 -123.07074092 262.60540387 -123.06463119 248.48687754 C-123.05946437 235.60496823 -123.07071571 222.7231346 -123.08972941 209.84124025 C-123.10915773 196.57549224 -123.11735507 183.30977993 -123.11360615 170.04401761 C-123.11170165 162.61178521 -123.11410789 155.17961718 -123.12832069 147.74739647 C-123.1402994 141.42006185 -123.14156735 135.09283124 -123.12953053 128.76549502 C-123.12368689 125.54506538 -123.12407754 122.32486223 -123.13453293 119.10443878 C-123.20542388 95.557424 -122.39483842 74.61143814 -105.36328125 56.72143555 C-100.94937074 52.32190037 -96.37237925 49.09415663 -90.75 46.375 C-89.71875 45.84261719 -88.6875 45.31023437 -87.625 44.76171875 C-75.46894903 38.75536809 -64.49310475 38.07964651 -51.0625 38.25 C-49.6673242 38.26005941 -48.2721413 38.26917998 -46.87695312 38.27734375 C-43.5011163 38.30070594 -40.12565382 38.33346332 -36.75 38.375 C-36.77618408 37.53839844 -36.80236816 36.70179687 -36.8293457 35.83984375 C-36.91514893 32.70140072 -36.97752807 29.56356026 -37.0246582 26.42431641 C-37.06182827 24.41137747 -37.1253997 22.39898163 -37.18945312 20.38671875 C-37.28574928 12.7215452 -37.02493676 7.2112253 -31.75 1.375 C-22.77050284 -7.60449716 -10.04482877 -5.93558064 0 0 Z " fill="#94949D" transform="translate(164.75,46.625)"/>
<path d="M0 0 C4.75125951 2.89837181 7.63982531 7.23197593 9.375 12.4375 C9.46489374 14.72209674 9.49257205 17.00929326 9.48852539 19.2956543 C9.48867142 19.98859589 9.48881744 20.68153748 9.4889679 21.39547729 C9.48827163 23.68425637 9.4804926 25.9729539 9.47265625 28.26171875 C9.47079106 29.84926814 9.46936763 31.43681811 9.46836853 33.02436829 C9.46455134 37.2017272 9.45472786 41.37905131 9.44366455 45.55639648 C9.43343328 49.81949391 9.42886723 54.08259696 9.42382812 58.34570312 C9.41310489 66.70965138 9.39603803 75.07357136 9.375 83.4375 C10.66046974 83.42417633 10.66046974 83.42417633 11.97190857 83.4105835 C20.0776449 83.33018682 28.18324588 83.26940873 36.28929043 83.23025131 C40.45597383 83.20944271 44.62232571 83.18124962 48.78881836 83.13574219 C52.81536648 83.09204222 56.84159723 83.06831238 60.86836433 83.05799103 C62.39886529 83.05064269 63.92935034 83.03629367 65.45971489 83.01457977 C81.44355761 82.79696307 81.44355761 82.79696307 88.375 87.4375 C90.53125 89.65625 90.53125 89.65625 91.875 91.9375 C92.3390625 92.6903125 92.803125 93.443125 93.28125 94.21875 C95.95753821 99.6477918 96.23207881 105.71899271 94.87890625 111.58984375 C92.83215414 117.61446438 89.96890572 122.10887571 84.16014099 125.08418274 C80.42045102 126.59615516 77.11063818 126.79972266 73.06274414 126.77807617 C72.36921844 126.77851425 71.67569275 126.77895233 70.96115112 126.77940369 C68.69385533 126.77733196 66.42732109 126.7540793 64.16015625 126.73046875 C62.57832747 126.724867 60.99649346 126.72059964 59.41465759 126.71760559 C55.27010493 126.70620229 51.12587233 126.6767746 46.98144531 126.64349365 C42.7448357 126.61269488 38.5081739 126.59907938 34.27148438 126.58398438 C25.97251008 126.55190003 17.67379496 126.50075906 9.375 126.4375 C9.38388245 127.30922852 9.39276489 128.18095703 9.4019165 129.07910156 C9.48225738 137.31759575 9.5430632 145.55595727 9.58224869 153.79475403 C9.60307209 158.02984407 9.63129279 162.26460884 9.67675781 166.49951172 C9.72040424 170.59089326 9.74417653 174.68196307 9.75450897 178.77355957 C9.7618668 180.33000593 9.77623476 181.88643635 9.79792023 183.44274902 C10.02245008 200.2333032 10.02245008 200.2333032 4.0335083 206.93969727 C-1.21680841 211.83949908 -7.43196575 212.86832711 -14.35546875 212.69140625 C-20.20457786 212.03703088 -25.56159647 209.72664818 -29.625 205.4375 C-34.74528236 197.70988059 -34.14171184 189.1325131 -34.015625 180.24609375 C-34.00815161 178.68954703 -34.00246387 177.13299082 -33.99847412 175.57643127 C-33.98330394 171.50740947 -33.94409854 167.43897156 -33.8996582 163.37017822 C-33.85851776 159.20715225 -33.8404233 155.04403065 -33.8203125 150.88085938 C-33.77759414 142.73280691 -33.70944976 134.58522638 -33.625 126.4375 C-34.49672852 126.44638245 -35.36845703 126.45526489 -36.26660156 126.4644165 C-44.50509575 126.54475738 -52.74345727 126.6055632 -60.98225403 126.64474869 C-65.21734407 126.66557209 -69.45210884 126.69379279 -73.68701172 126.73925781 C-77.77839326 126.78290424 -81.86946307 126.80667653 -85.96105957 126.81700897 C-87.51750593 126.8243668 -89.07393635 126.83873476 -90.63024902 126.86042023 C-105.77150193 127.06289498 -105.77150193 127.06289498 -112.625 122.4375 C-114.46484375 120.62109375 -114.46484375 120.62109375 -115.5625 118.875 C-115.94277344 118.29621094 -116.32304687 117.71742188 -116.71484375 117.12109375 C-119.97790009 111.08513974 -119.83143069 101.61519714 -117.94140625 95.0703125 C-114.89177795 89.3759858 -109.70882764 85.38178503 -103.625 83.4375 C-100.36625671 83.19699097 -100.36625671 83.19699097 -96.6315918 83.21044922 C-95.94811172 83.21015717 -95.26463165 83.20986511 -94.56044006 83.20956421 C-92.31490109 83.21095083 -90.06969933 83.22648013 -87.82421875 83.2421875 C-86.26194948 83.24592001 -84.69967785 83.24876586 -83.1374054 83.25076294 C-79.03564941 83.25838065 -74.9340362 83.27801304 -70.83233643 83.3001709 C-66.64280122 83.32066953 -62.45324283 83.32977323 -58.26367188 83.33984375 C-50.0507159 83.36126078 -41.83787574 83.39537412 -33.625 83.4375 C-33.63388245 82.57829956 -33.64276489 81.71909912 -33.6519165 80.8338623 C-33.732263 72.71309813 -33.793066 64.5924686 -33.83224869 56.4713974 C-33.85307062 52.29683899 -33.88128851 48.12261067 -33.92675781 43.94824219 C-33.97040966 39.91521487 -33.99417763 35.88250386 -34.00450897 31.84925842 C-34.01186585 30.31514003 -34.02623192 28.78103778 -34.04792023 27.24705505 C-34.1734043 17.99893891 -34.22530759 10.65118194 -27.80859375 3.37890625 C-27.23238281 2.92386719 -26.65617187 2.46882813 -26.0625 2 C-25.48371094 1.52691406 -24.90492188 1.05382812 -24.30859375 0.56640625 C-18.30123611 -3.46172915 -6.47219681 -2.90689837 0 0 Z " fill="#94949D" transform="translate(374.625,257.5625)"/>
</svg>
