<?xml version="1.0" encoding="UTF-8"?>
<svg version="1.1" xmlns="http://www.w3.org/2000/svg" width="512" height="512">
<path d="M0 0 C4.63535813 2.15213056 8.01334219 5.23793392 10 10 C10.47845787 13.80651159 10.37844376 17.54638798 10.25 21.375 C10.23195312 22.39722656 10.21390625 23.41945313 10.1953125 24.47265625 C10.14839491 26.98274749 10.08276729 29.49087764 10 32 C11.06409088 31.99111755 12.12818176 31.98223511 13.22451782 31.9730835 C23.25899945 31.89195052 33.29341442 31.83201192 43.3281498 31.79275131 C48.48697214 31.77188834 53.64552942 31.74359403 58.80419922 31.69824219 C63.78385392 31.65473876 68.76325386 31.63085319 73.74308395 31.62049103 C75.64168686 31.61310776 77.54027602 31.59868986 79.43877029 31.57707977 C82.10092403 31.54798592 84.76202893 31.54404648 87.42431641 31.54589844 C88.59820419 31.52432678 88.59820419 31.52432678 89.79580688 31.50231934 C94.98692729 31.54132131 97.85376005 32.62285232 102 36 C105.62833663 39.81930172 106.31000458 42.88279006 106.5 48 C106.31000458 53.11720994 105.62833663 56.18069828 102 60 C97.02153695 64.05500046 93.57341515 64.56709894 87.42431641 64.45410156 C86.58463318 64.45468567 85.74494995 64.45526978 84.87982178 64.45587158 C82.1199732 64.45309739 79.36122107 64.4220375 76.6015625 64.390625 C74.68200266 64.38316023 72.76243518 64.37746841 70.84286499 64.37347412 C65.80225408 64.35823638 60.76210768 64.31897054 55.72167969 64.2746582 C50.57363162 64.23366539 45.42550815 64.21545454 40.27734375 64.1953125 C30.18469228 64.15247454 20.09238484 64.08424569 10 64 C10.02094727 64.63502441 10.04189453 65.27004883 10.06347656 65.92431641 C10.14704581 68.82438076 10.19878774 71.72419116 10.25 74.625 C10.28351563 75.62402344 10.31703125 76.62304688 10.3515625 77.65234375 C10.43315123 83.81229285 10.1132688 87.31627786 6 92 C2.18069828 95.62833663 -0.88279006 96.31000458 -6 96.5 C-11.11720994 96.31000458 -14.18069828 95.62833663 -18 92 C-22.79986797 86.53445691 -22.48686229 81.68531815 -22.25 74.625 C-22.23195313 73.60277344 -22.21390625 72.58054687 -22.1953125 71.52734375 C-22.14839491 69.01725251 -22.08276729 66.50912236 -22 64 C-26.42536097 64.095219 -30.85028632 64.20162578 -35.27514648 64.31738281 C-36.77312306 64.35511603 -38.2711733 64.39005313 -39.76928711 64.421875 C-60.83321254 64.87440646 -79.28107393 66.91506726 -96 81 C-96.96486328 81.79664062 -96.96486328 81.79664062 -97.94921875 82.609375 C-111.03168395 94.48648948 -115.71280948 111.02814361 -117 128 C-117.3388309 135.36986765 -117.27434088 142.749266 -117.25878906 150.125 C-117.26150503 152.30826941 -117.26506935 154.4915379 -117.26940918 156.67480469 C-117.27846336 162.55906456 -117.2750179 168.44325366 -117.26865101 174.32751465 C-117.26355469 180.51261574 -117.26829249 186.69771115 -117.27142334 192.8828125 C-117.27505245 203.26563596 -117.27029164 213.64843088 -117.26074219 224.03125 C-117.2498597 236.00096931 -117.25338602 247.97062047 -117.264395 259.94033813 C-117.273498 270.25420715 -117.27473846 280.56805575 -117.26951766 290.88192749 C-117.26641449 297.02578853 -117.26594285 303.16961763 -117.27259064 309.31347656 C-117.27840746 315.09203246 -117.27428855 320.87050127 -117.26280212 326.64904785 C-117.26017858 328.75801449 -117.26088068 330.86698857 -117.26532745 332.97595215 C-117.31246434 357.62120206 -115.79099529 378.6272312 -97.7734375 397.30859375 C-78.7028264 415.13253946 -56.19566349 415.28794646 -31.5591259 415.27439499 C-27.64539945 415.2734202 -23.73194046 415.28647973 -19.81825256 415.30337524 C-8.70250954 415.3500312 2.4132158 415.37436726 13.52905273 415.38085938 C20.35455061 415.38501349 27.17975445 415.41006736 34.00515556 415.44618607 C36.59868079 415.4559833 39.19224545 415.45831647 41.78578377 415.45301437 C45.40185601 415.44595972 49.01706597 415.46318908 52.63305664 415.48583984 C53.7006572 415.47766739 54.76825775 415.46949493 55.86820984 415.46107483 C61.91226956 415.52851449 65.39104073 415.98443591 70 420 C73.62833663 423.81930172 74.31000458 426.88279006 74.5 432 C74.31000458 437.11720994 73.62833663 440.18069828 70 444 C64.36539688 449.05932613 58.78777733 448.56752666 51.47143555 448.51757812 C49.5798748 448.52809204 49.5798748 448.52809204 47.65010071 448.53881836 C44.19885418 448.55701546 40.74808745 448.54999415 37.2968328 448.53730202 C33.66661071 448.52713118 30.03642804 448.53658122 26.40620422 448.54284668 C20.29896745 448.55012148 14.19192416 448.5405506 8.0847168 448.52148438 C1.0661023 448.49982302 -5.95204538 448.50668872 -12.97064811 448.52879 C-19.02452793 448.54707791 -25.07826893 448.54943449 -31.13216752 448.53903532 C-34.73489532 448.53285933 -38.33740573 448.53179679 -41.94011879 448.54518127 C-73.68996905 448.6471406 -99.67045653 442.98363591 -123 420 C-142.88283388 400.1503595 -150.48407152 375.50920462 -150.54211426 348.08145142 C-150.53434022 345.78997662 -150.52614775 343.49850321 -150.51757812 341.20703125 C-150.52300908 338.74937528 -150.53013717 336.29172257 -150.53881836 333.83407593 C-150.5550641 327.89163992 -150.55282536 321.94939021 -150.5411678 316.00695968 C-150.53207925 311.171015 -150.53093268 306.33512683 -150.53526306 301.49917603 C-150.53587599 300.80699661 -150.53648893 300.1148172 -150.53712043 299.40166265 C-150.53839952 297.99486214 -150.53969638 296.58806165 -150.5410108 295.18126118 C-150.55237653 282.03554868 -150.53936618 268.88994833 -150.51780933 255.74425423 C-150.49994198 244.50099621 -150.50304722 233.25790348 -150.52148438 222.01464844 C-150.54296233 208.91120917 -150.55127827 195.80786783 -150.53903532 182.70441341 C-150.53776132 181.30321695 -150.53650384 179.90202047 -150.53526306 178.50082397 C-150.53464596 177.81167508 -150.53402886 177.12252619 -150.53339306 176.412494 C-150.52996084 171.59069648 -150.53572213 166.76896185 -150.54518127 161.94717407 C-150.55766853 155.43969697 -150.54859063 148.93245668 -150.52560425 142.42500687 C-150.52035323 140.04877865 -150.52176835 137.67252401 -150.53065491 135.29630661 C-150.63175616 105.49570344 -143.4124219 80.73468243 -122 59 C-104.33485843 41.30531806 -81.14580009 31.71754098 -56.27734375 31.609375 C-52.16320019 31.62114745 -48.0510377 31.68190677 -43.9375 31.75 C-41.79884507 31.77011935 -39.66017162 31.7883604 -37.52148438 31.8046875 C-32.3471879 31.84819759 -27.17380611 31.91691745 -22 32 C-22.0314209 31.04746338 -22.0314209 31.04746338 -22.06347656 30.07568359 C-22.14704581 27.17561924 -22.19878774 24.27580884 -22.25 21.375 C-22.28351563 20.37597656 -22.31703125 19.37695312 -22.3515625 18.34765625 C-22.43315123 12.18770715 -22.1132688 8.68372214 -18 4 C-12.72867143 -1.00776214 -6.89190982 -0.92775709 0 0 Z " fill="#777789" transform="translate(182,32)"/>
<path d="M0 0 C0.73863281 0.32871094 1.47726562 0.65742188 2.23828125 0.99609375 C15.6950504 7.71285763 24.27973863 18.9844547 29 33 C32.236225 44.35941672 30.9904793 58.45808742 26 69 C21.60236601 76.88834182 16.3220763 83.251633 9.9152832 89.57055664 C9.03311127 90.45652527 8.15093933 91.3424939 7.24203491 92.25531006 C4.8507244 94.65270437 2.45095638 97.04093275 0.04642129 99.4250176 C-2.47943238 101.93313641 -4.99456824 104.45196417 -7.51118469 106.96934509 C-11.72991184 111.18620837 -15.95625962 115.39530571 -20.18774414 119.59936523 C-25.07572783 124.45578532 -29.9530646 129.32269423 -34.82455891 134.19565111 C-40.02742176 139.39986479 -45.23786321 144.59643925 -50.45058084 149.79077983 C-51.94750628 151.28344865 -53.44301093 152.77752847 -54.93820763 154.27192879 C-57.72064823 157.05198644 -60.51154405 159.8234577 -63.3034668 162.59399414 C-64.12900558 163.4204393 -64.95454437 164.24688446 -65.80509949 165.09837341 C-66.56617004 165.850914 -67.3272406 166.60345459 -68.1113739 167.37879944 C-68.76966029 168.03373414 -69.42794668 168.68866884 -70.10618114 169.36345005 C-73.92547207 172.66390318 -76.87385583 173.25388964 -81.86669922 173.29052734 C-83.04827606 173.30328705 -84.22985291 173.31604675 -85.44723511 173.32919312 C-86.7201944 173.33141876 -87.99315369 173.33364441 -89.3046875 173.3359375 C-90.61656036 173.3425943 -91.92843323 173.3492511 -93.28005981 173.35610962 C-96.05571788 173.36807195 -98.83125158 173.37179156 -101.60693359 173.37060547 C-105.15341138 173.37040238 -108.69908687 173.39769685 -112.24537468 173.43214989 C-115.64015716 173.45981565 -119.03479382 173.45856936 -122.4296875 173.4609375 C-124.33305374 173.48249405 -124.33305374 173.48249405 -126.27487183 173.50448608 C-137.44789341 173.4466095 -137.44789341 173.4466095 -142 169 C-147.42072859 163.43007704 -146.57809927 156.80568987 -146.53125 149.5 C-146.5350769 148.19095703 -146.53890381 146.88191406 -146.54284668 145.53320312 C-146.54872605 142.76933804 -146.54023041 140.00599198 -146.52148438 137.2421875 C-146.49869442 133.71137169 -146.51182609 130.18177223 -146.53577423 126.65100098 C-146.55375956 123.26723823 -146.54114232 119.88379724 -146.53125 116.5 C-146.53934692 115.23736328 -146.54744385 113.97472656 -146.55578613 112.67382812 C-146.54317749 111.49240234 -146.53056885 110.31097656 -146.51757812 109.09375 C-146.51439575 108.05927734 -146.51121338 107.02480469 -146.50793457 105.95898438 C-145.21994341 98.45576261 -138.62549049 93.32332945 -133.47460938 88.16821289 C-132.61547943 87.30075943 -131.75634949 86.43330597 -130.8711853 85.53956604 C-128.52341099 83.17188137 -126.17117988 80.80882971 -123.81598473 78.44853902 C-122.34010518 76.9690024 -120.86552899 75.48817905 -119.39137268 74.00692558 C-114.23471987 68.82580808 -109.07239675 63.65041079 -103.90527344 58.47973633 C-99.11173168 53.682567 -94.33146047 48.87244863 -89.55711889 44.0561772 C-85.44014844 39.90434136 -81.31343877 35.76235039 -77.17934656 31.62756342 C-74.71826873 29.16569795 -72.26121027 26.70014073 -69.81413269 24.22435188 C-67.07697601 21.45580094 -64.31967157 18.70784745 -61.56054688 15.96118164 C-60.37233841 14.75072174 -60.37233841 14.75072174 -59.16012573 13.51580811 C-44.03926541 -1.41281688 -20.39225124 -9.45006765 0 0 Z M-40.32202148 41.5847168 C-41.12283646 42.34493637 -41.92365143 43.10515594 -42.74873352 43.88841248 C-50.10862634 50.89911941 -57.39226642 57.99065464 -64.64933681 65.10763836 C-69.99662631 70.34985777 -75.38067434 75.54694257 -80.82238716 80.6911189 C-85.13356927 84.77451065 -89.37371945 88.92717625 -93.5936451 93.10489845 C-95.38356029 94.8564907 -97.19477778 96.58661247 -99.02789116 98.29294395 C-110.36245909 108.68117957 -110.36245909 108.68117957 -115.08547974 122.8241272 C-115.27496951 128.94005401 -114.86118931 134.94552187 -114 141 C-103.74844036 142.48213586 -92.49602091 143.97567537 -83.56402588 137.8192749 C-78.09791001 133.34182436 -73.31669585 128.21557044 -68.5078125 123.0546875 C-66.69518186 121.20294628 -64.87710764 119.35651968 -63.05392456 117.51516724 C-59.26924172 113.66844868 -55.52592669 109.78821845 -51.81738281 105.86816406 C-46.59666425 100.34977118 -41.2963673 94.91331784 -35.97670579 89.49047446 C-28.45262671 81.81171952 -20.96709332 74.09483968 -13.56298828 66.30029297 C-12.83693893 65.54575333 -12.11088959 64.79121368 -11.36283875 64.0138092 C-6.58432455 58.94664223 -2.55471796 54.30933249 -2.625 47 C-2.80701579 41.94147773 -3.7385397 38.21924638 -7.46484375 34.5625 C-11.51850406 31.07377524 -13.91570126 29.82565748 -19.1875 29.6875 C-20.10917969 29.65011719 -21.03085937 29.61273438 -21.98046875 29.57421875 C-29.63011407 30.65288801 -34.98519436 36.45291811 -40.32202148 41.5847168 Z " fill="#777789" transform="translate(450,307)"/>
<path d="M0 0 C4.63535813 2.15213056 8.01334219 5.23793392 10 10 C10.47845787 13.80651159 10.37844376 17.54638798 10.25 21.375 C10.23195313 22.39722656 10.21390625 23.41945313 10.1953125 24.47265625 C10.14839491 26.98274749 10.08276729 29.49087764 10 32 C11.30445068 31.97905273 12.60890137 31.95810547 13.95288086 31.93652344 C18.87496603 31.8631496 23.79700481 31.81785247 28.71948242 31.78027344 C30.83447445 31.76037669 32.9494131 31.73324935 35.06420898 31.69824219 C63.61725352 31.23803668 88.17256992 38.02710791 109.21484375 58.25 C128.5782161 77.3689539 138.27745893 100.97180468 138.54717255 127.97762775 C138.55599746 131.09333368 138.54485413 134.20853577 138.53125 137.32421875 C138.53395134 139.52757437 138.53783907 141.73092881 138.54284668 143.9342804 C138.54869789 148.51546765 138.54031216 153.09633996 138.52148438 157.67749023 C138.49854834 163.54286947 138.51193797 169.4075223 138.53577423 175.27287579 C138.55022451 179.80680327 138.54563224 184.34055808 138.53526306 188.87449074 C138.53260134 191.03820699 138.53584593 193.20193908 138.54518127 195.36563683 C138.55535036 198.38049428 138.53984682 201.39416637 138.51757812 204.40893555 C138.52567505 205.29572998 138.53377197 206.18252441 138.54211426 207.09619141 C138.46745672 212.55749053 137.61748276 215.65848531 134 220 C130.18069828 223.62833663 127.11720994 224.31000458 122 224.5 C116.88279006 224.31000458 113.81930172 223.62833663 110 220 C106.19066762 215.28642801 105.42215571 211.5807179 105.48583984 205.67822266 C105.47871475 204.86424011 105.47158966 204.05025757 105.46424866 203.21160889 C105.44500464 200.52884459 105.45324642 197.8468728 105.4609375 195.1640625 C105.45101918 193.28281517 105.43907363 191.40157755 105.42520142 189.52035522 C105.39284278 184.56496064 105.38245122 179.60978668 105.37835693 174.65429688 C105.36960894 166.76010712 105.33355937 158.86609921 105.2861824 150.97205734 C105.2737743 148.23826784 105.27434109 145.50471597 105.27645874 142.77090454 C105.22308739 119.51818617 102.52401253 100.31336103 85.84375 82.7265625 C68.62102676 66.43985682 48.29023932 65.02775512 25.875 64.4375 C24.33071997 64.39420698 22.786449 64.35058967 21.2421875 64.30664062 C17.49488861 64.20069059 13.74748647 64.0991213 10 64 C10.02094727 64.63502441 10.04189453 65.27004883 10.06347656 65.92431641 C10.14704581 68.82438076 10.19878774 71.72419116 10.25 74.625 C10.30027344 76.12353516 10.30027344 76.12353516 10.3515625 77.65234375 C10.43315123 83.81229285 10.1132688 87.31627786 6 92 C2.18069828 95.62833663 -0.88279006 96.31000458 -6 96.5 C-11.11720994 96.31000458 -14.18069828 95.62833663 -18 92 C-21.67610531 87.36868623 -22.50338797 84.31761243 -22.51757812 78.4375 C-22.5245874 77.70499023 -22.53159668 76.97248047 -22.53881836 76.21777344 C-22.55633397 73.81145618 -22.54479954 71.40632791 -22.53125 69 C-22.53394679 67.31900814 -22.53783077 65.63801779 -22.54284668 63.95703125 C-22.54873298 60.43995257 -22.54020709 56.9232812 -22.52148438 53.40625 C-22.49869501 48.90697811 -22.5118228 44.40866073 -22.53577423 39.90942383 C-22.55025591 36.44003153 -22.54561544 32.97086406 -22.53526306 29.50146484 C-22.53260231 27.84293504 -22.53584257 26.18438456 -22.54518127 24.52587891 C-22.55538646 22.20420579 -22.53979279 19.88405989 -22.51757812 17.5625 C-22.51439575 16.24378906 -22.51121338 14.92507812 -22.50793457 13.56640625 C-21.75392424 8.27220633 -19.30798979 5.2425903 -15.5 1.625 C-10.33499991 -0.77303575 -5.5997712 -0.75381535 0 0 Z " fill="#777789" transform="translate(342,32)"/>
<path d="M0 0 C1.64292778 -0.00935994 1.64292778 -0.00935994 3.31904602 -0.01890898 C6.99025987 -0.0348675 10.66081243 -0.02222286 14.33203125 -0.00964355 C16.96354561 -0.01506337 19.59505694 -0.02218523 22.2265625 -0.03088379 C28.63270663 -0.04866358 35.03866322 -0.04483152 41.44481468 -0.03323323 C46.65153924 -0.02419702 51.85821126 -0.02297571 57.06494141 -0.02732849 C57.80619294 -0.02794142 58.54744448 -0.02855436 59.31115818 -0.02918586 C60.8170306 -0.03046477 62.32290301 -0.03176163 63.82877541 -0.03307623 C77.94696453 -0.04448044 92.06504974 -0.03137085 106.18322182 -0.00987476 C118.295377 0.0079961 130.40737883 0.00489195 142.51953125 -0.0135498 C156.58744328 -0.03495936 170.65526426 -0.04338181 184.72319031 -0.03110075 C186.22350056 -0.02982656 187.72381082 -0.02856908 189.22412109 -0.02732849 C190.33137212 -0.02640284 190.33137212 -0.02640284 191.46099186 -0.02545848 C196.66102854 -0.02200583 201.86100743 -0.02783209 207.06103516 -0.0372467 C214.06081736 -0.04964127 221.06030498 -0.04080768 228.06005859 -0.01766968 C230.63117999 -0.01237425 233.20232574 -0.01391051 235.7734375 -0.02272034 C239.27897689 -0.03362578 242.78358283 -0.01997111 246.2890625 0 C247.31026688 -0.00892289 248.33147125 -0.01784577 249.38362122 -0.02703905 C255.15875352 0.0369242 258.59163175 0.59183403 263.14453125 4.50793457 C266.77286788 8.32723629 267.45453583 11.39072463 267.64453125 16.50793457 C267.45453583 21.62514451 266.77286788 24.68863285 263.14453125 28.50793457 C257.71275358 33.17998751 253.1175561 33.07553386 246.2890625 33.01586914 C245.19377731 33.0221091 244.09849213 33.02834907 242.97001648 33.03477812 C239.29880263 33.05073664 235.62825007 33.038092 231.95703125 33.0255127 C229.32551689 33.03093251 226.69400556 33.03805437 224.0625 33.04675293 C217.65635587 33.06453272 211.25039928 33.06070066 204.84424782 33.04910237 C199.63752326 33.04006616 194.43085124 33.03884485 189.22412109 33.04319763 C188.48286956 33.04381056 187.74161802 33.0444235 186.97790432 33.045055 C185.4720319 33.04633391 183.96615949 33.04763077 182.46028709 33.04894537 C168.34209797 33.06034958 154.22401276 33.04723999 140.10584068 33.0257439 C127.9936855 33.00787304 115.88168367 33.01097719 103.76953125 33.02941895 C89.70161922 33.0508285 75.63379824 33.05925096 61.56587219 33.04696989 C60.06556194 33.0456957 58.56525168 33.04443822 57.06494141 33.04319763 C55.95769038 33.04227198 55.95769038 33.04227198 54.82807064 33.04132763 C49.62803396 33.03787497 44.42805507 33.04370123 39.22802734 33.05311584 C32.22824514 33.06551041 25.22875752 33.05667682 18.22900391 33.03353882 C15.65788251 33.02824339 13.08673676 33.02977965 10.515625 33.03858948 C7.01008561 33.04949492 3.50547967 33.03584025 0 33.01586914 C-1.02120438 33.02479203 -2.04240875 33.03371491 -3.09455872 33.04290819 C-8.86969102 32.97894494 -12.30256925 32.42403511 -16.85546875 28.50793457 C-20.48380538 24.68863285 -21.16547333 21.62514451 -21.35546875 16.50793457 C-21.16547333 11.39072463 -20.48380538 8.32723629 -16.85546875 4.50793457 C-11.42369108 -0.16411836 -6.8284936 -0.05966472 0 0 Z " fill="#787888" transform="translate(132.85546875,175.4920654296875)"/>
<path d="M0 0 C5.82485779 3.51996782 10.54466582 8.98962934 12.5625 15.5 C13.36764105 23.33608208 13.68710392 31.11922577 8.5625 37.5 C3.75801361 42.54521222 -0.59927055 46.10562995 -7.70703125 46.8359375 C-16.22326573 46.92983204 -22.11345494 46.6177288 -28.40234375 40.62890625 C-34.7841668 33.72505269 -35.91792252 28.29832071 -35.7421875 18.9453125 C-35.04689797 11.08319245 -31.38995981 6.95041296 -25.53515625 1.9453125 C-18.47077988 -2.92213491 -7.84396301 -3.47595223 0 0 Z " fill="#777789" transform="translate(147.4375,353.5)"/>
<path d="M0 0 C5.82485779 3.51996782 10.54466582 8.98962934 12.5625 15.5 C13.36764105 23.33608208 13.68710392 31.11922577 8.5625 37.5 C3.75801361 42.54521222 -0.59927055 46.10562995 -7.70703125 46.8359375 C-16.22326573 46.92983204 -22.11345494 46.6177288 -28.40234375 40.62890625 C-34.7841668 33.72505269 -35.91792252 28.29832071 -35.7421875 18.9453125 C-35.04689797 11.08319245 -31.38995981 6.95041296 -25.53515625 1.9453125 C-18.47077988 -2.92213491 -7.84396301 -3.47595223 0 0 Z " fill="#777789" transform="translate(267.4375,257.5)"/>
<path d="M0 0 C5.82485779 3.51996782 10.54466582 8.98962934 12.5625 15.5 C13.36764105 23.33608208 13.68710392 31.11922577 8.5625 37.5 C3.75801361 42.54521222 -0.59927055 46.10562995 -7.70703125 46.8359375 C-16.22326573 46.92983204 -22.11345494 46.6177288 -28.40234375 40.62890625 C-34.7841668 33.72505269 -35.91792252 28.29832071 -35.7421875 18.9453125 C-35.04689797 11.08319245 -31.38995981 6.95041296 -25.53515625 1.9453125 C-18.47077988 -2.92213491 -7.84396301 -3.47595223 0 0 Z " fill="#777789" transform="translate(147.4375,257.5)"/>
</svg>
